# xmcd
#
# Track frame offsets:
#	150
#	31772
#	57507
#	71340
#
# Disc length: 1431 seconds
#
# Revision: 1
# Processed by: cddbd v1.4PL0 Copyright (c) Steve Scherf et al.
# Submitted via: EasyCDDAExtractor 6.0.0.1
#
DISCID=2d059504
DTITLE=Lindsey Alexander - Blues "N" More
DYEAR=1900
DGENRE=Blues
TTITLE0=I'm Tired
TTITLE1=Rainy Night
TTITLE2=User
TTITLE3=Higher
EXTD=
EXTT0=
EXTT1=
EXTT2=
EXTT3=
PLAYORDER=
